<svg xmlns="http://www.w3.org/2000/svg" viewBox="0 0 188.8 188.71"><defs><style>.cls-1{fill:#fff8df;}</style></defs><title>correo</title><g id="Capa_2" data-name="Capa 2"><path class="cls-1" d="M188.69,28.44A28.46,28.46,0,0,0,160.23,0H28.46A28.46,28.46,0,0,0,0,28.46V160.24a28.47,28.47,0,0,0,28.46,28.47h0l131.87,0a28.47,28.47,0,0,0,28.46-28.49ZM160.23,11a17.37,17.37,0,0,1,10.08,3.23L96.55,88a3,3,0,0,1-4.28,0L18.38,14.23A17.32,17.32,0,0,1,28.46,11Zm12.46,161.55a17.37,17.37,0,0,1-12.35,5.13l-131.88,0A17.49,17.49,0,0,1,11,160.24V28.46a17.52,17.52,0,0,1,.81-5.25L84.5,95.75a14,14,0,0,0,19.83,0l72.55-72.52a17.08,17.08,0,0,1,.81,5.23l.11,131.75A17.35,17.35,0,0,1,172.69,172.55Z"/></g></svg>