<svg xmlns="http://www.w3.org/2000/svg" viewBox="0 0 188.39 188.67"><defs><style>.cls-1{fill:#fff8df;}</style></defs><title>insta</title><g id="Capa_5" data-name="Capa 5"><path class="cls-1" d="M141.57,11a35.86,35.86,0,0,1,35.82,35.82v95a35.86,35.86,0,0,1-35.82,35.82H46.82A35.86,35.86,0,0,1,11,141.85v-95A35.86,35.86,0,0,1,46.82,11h94.75m0-11H46.82A46.82,46.82,0,0,0,0,46.82v95a46.82,46.82,0,0,0,46.82,46.82h94.75a46.82,46.82,0,0,0,46.82-46.82v-95A46.82,46.82,0,0,0,141.57,0Z"/><path class="cls-1" d="M94.1,55.37a39,39,0,1,1-39,39,39,39,0,0,1,39-39m0-11a50,50,0,1,0,50,50,50,50,0,0,0-50-50Z"/><circle class="cls-1" cx="152.31" cy="36.1" r="11.84"/></g></svg>