<svg xmlns="http://www.w3.org/2000/svg" viewBox="0 0 188.39 188.67"><defs><style>.cls-1{fill:#fff8df;}</style></defs><title>linkedin</title><g id="Capa_5" data-name="Capa 5"><path class="cls-1" d="M167.52,11a9.88,9.88,0,0,1,9.87,9.87V167.79a9.89,9.89,0,0,1-9.87,9.88H20.87A9.89,9.89,0,0,1,11,167.79V20.87A9.88,9.88,0,0,1,20.87,11H167.52m0-11H20.87A20.88,20.88,0,0,0,0,20.87V167.79a20.88,20.88,0,0,0,20.87,20.88H167.52a20.88,20.88,0,0,0,20.87-20.88V20.87A20.88,20.88,0,0,0,167.52,0Z"/><rect class="cls-1" x="20.68" y="70.17" width="30.98" height="99.65"/><path class="cls-1" d="M36.19,56.55a18,18,0,1,0-18-18A18,18,0,0,0,36.19,56.55Z"/><path class="cls-1" d="M102,120.52c0-13,2.48-25.58,18.58-25.58,15.87,0,16.1,14.85,16.1,26.41v48.47h31V115.17c0-26.83-5.8-47.48-37.14-47.48-15.06,0-25.16,8.28-29.31,16.1h-.42V70.17H71.08v99.65h31Z"/></g></svg>