<svg xmlns="http://www.w3.org/2000/svg" viewBox="0 0 254.42 304.25"><defs><style>.cls-1{fill:#232c5a;}</style></defs><title>completo</title><g id="Capa_2" data-name="Capa 2"><path class="cls-1" d="M126.69,210.18h-1.07A93.69,93.69,0,0,1,33.4,126.13a3,3,0,0,1,5.84-1.24c1.64,5.11,13.54,14.39,22.37,14.51h.17c4,0,6.55-1.91,8-6,1.58-4.51-1.94-8.58-8.29-15.38-8.89-9.54-21.08-22.6-17.35-45.69a3,3,0,0,1,5-1.74C60.25,80.74,72,79.07,78,77.17c8.5-2.69,15.66-9.12,17-15.27.86-3.89.29-6.78-1.72-8.58C88.93,49.4,78,49.84,64.09,54.48a3,3,0,0,1-3-5c16.18-15,32.42-23,52.65-25.84a3,3,0,1,1,.83,5.94A83.92,83.92,0,0,0,75.37,45.38c10-1.7,17.47-.54,21.92,3.48,2.56,2.31,5.26,6.67,3.56,14.34C99,71.57,90.52,79.48,79.78,82.89a34.55,34.55,0,0,1-30.3-4.38c-.81,17,8.65,27.11,16.38,35.41,6.39,6.84,12.42,13.3,9.56,21.45-2.29,6.56-7.25,10.09-13.89,10s-14.54-4-20.27-8.75a86.25,86.25,0,0,0,8.56,22.22,88.12,88.12,0,0,0,45,39.35,87.1,87.1,0,0,0,30.82,6h1A87.69,87.69,0,0,0,141.58,30.07a3,3,0,0,1-2.15-1.56A70.57,70.57,0,0,0,124.67,9.65c.55,7.65,1.15,19.32.13,24.08C120.88,52,100,98.42,96.77,105.46c1.71,10.34,4.44,20.07,6.07,21.49,2.49,1.84,10.14.09,14-2.57,2-1.38,4.84-5.29,7.12-8.43a61.92,61.92,0,0,1,4.81-6.14c5.5-5.72,10.89-8.3,15.65-10.58,7.22-3.45,12-5.74,14.34-17.45a3,3,0,0,1,5.91,1c-3.16,24.38-18.11,37.24-32.57,49.67-15.86,13.64-32.27,27.75-36.2,58a3,3,0,1,1-6-.77c4.23-32.5,22.3-48,38.24-61.75,9.17-7.89,18-15.5,23.91-25.83-1.64,1-3.35,1.77-5.09,2.6-4.51,2.15-9.17,4.38-13.91,9.31a61.31,61.31,0,0,0-4.28,5.51c-2.81,3.88-5.72,7.89-8.59,9.86-4.26,2.92-15.14,6.76-21,2.44-4.5-3.32-7.48-19.47-8.56-26.26a3,3,0,0,1,.23-1.71c.24-.53,24-52.59,28-71.32,1.1-5.12-.2-22.82-.79-29.2A3,3,0,0,1,122.83.53c8.06,5.56,16.09,14.62,21.21,23.89a93.69,93.69,0,0,1-17.35,185.76Z"/><path class="cls-1" d="M3.37,241.41A1.49,1.49,0,0,1,4.45,241a1.49,1.49,0,0,1,1.1.42,1.52,1.52,0,0,1,.43,1.1v19.84a1.5,1.5,0,0,1-.43,1.08,1.47,1.47,0,0,1-1.1.44,1.5,1.5,0,0,1-1.52-1.52V242.51A1.48,1.48,0,0,1,3.37,241.41Z"/><path class="cls-1" d="M21.86,248.14a1.36,1.36,0,0,1,.87,1.17,1.75,1.75,0,0,1,0,.29,1.14,1.14,0,0,1-1.18.94,2.56,2.56,0,0,1-.44-.06,11,11,0,0,0-1.9-.2,5.55,5.55,0,0,0-3.4,1,3.11,3.11,0,0,0-1.29,2.61v8.55a1.54,1.54,0,0,1-.36,1.09,1.48,1.48,0,0,1-1.1.38A1.5,1.5,0,0,1,12,263.5a1.47,1.47,0,0,1-.38-1.1V249.31A1.33,1.33,0,0,1,13,247.84a1.3,1.3,0,0,1,1.46,1.47v.56a6.28,6.28,0,0,1,2.17-1.62,6.59,6.59,0,0,1,2.75-.58A5.16,5.16,0,0,1,21.86,248.14Z"/><path class="cls-1" d="M37.19,248.8a7.84,7.84,0,0,1,2.9,2.93,8.09,8.09,0,0,1,1.07,4.14v6.53a1.45,1.45,0,0,1-.42,1.07,1.44,1.44,0,0,1-1.07.43,1.42,1.42,0,0,1-1.07-.43,1.46,1.46,0,0,1-.43-1.07v-1.08a7,7,0,0,1-2.49,2,7.17,7.17,0,0,1-3.16.71,7.07,7.07,0,0,1-3.82-1.06A7.37,7.37,0,0,1,26,260a8.79,8.79,0,0,1-1-4.15,8.27,8.27,0,0,1,1.05-4.14A7.75,7.75,0,0,1,29,248.8a8,8,0,0,1,4.12-1.07A7.87,7.87,0,0,1,37.19,248.8Zm-1.43,11.83a5.08,5.08,0,0,0,1.86-2,5.77,5.77,0,0,0,.67-2.8,5.86,5.86,0,0,0-.67-2.81,5.17,5.17,0,0,0-7.17-2,5.17,5.17,0,0,0-1.87,2,5.76,5.76,0,0,0-.69,2.81,5.67,5.67,0,0,0,.69,2.8,5.18,5.18,0,0,0,1.87,2,5.26,5.26,0,0,0,5.31,0Z"/><path class="cls-1" d="M57.25,248.58a6.22,6.22,0,0,1,2.52,2.56,8.51,8.51,0,0,1,.9,4.06v7.2a1.45,1.45,0,0,1-.42,1.07,1.55,1.55,0,0,1-2.14,0,1.45,1.45,0,0,1-.42-1.07v-7.2A4.34,4.34,0,0,0,53,250.39a5,5,0,0,0-2.24.5,3.91,3.91,0,0,0-1.59,1.35,3.34,3.34,0,0,0-.57,1.9v8.26a1.45,1.45,0,0,1-.41,1.07,1.4,1.4,0,0,1-1.08.43,1.42,1.42,0,0,1-1.07-.43,1.46,1.46,0,0,1-.43-1.07V249.34a1.5,1.5,0,1,1,3,0v.32a6.62,6.62,0,0,1,2.23-1.45,7.84,7.84,0,0,1,6.39.37Z"/><path class="cls-1" d="M73.38,261.35a1.54,1.54,0,0,1,.36,1,1.33,1.33,0,0,1-.48,1.06,1.88,1.88,0,0,1-1.25.41h-.52a4.83,4.83,0,0,1-2.63-.75,5.21,5.21,0,0,1-1.86-2,6.17,6.17,0,0,1-.67-2.9V251H65a1.41,1.41,0,0,1-1-.35,1.15,1.15,0,0,1-.39-.88,1.21,1.21,0,0,1,.39-.94,1.41,1.41,0,0,1,1-.35h1.35v-4.22a1.42,1.42,0,0,1,.41-1.05,1.39,1.39,0,0,1,1.05-.41,1.41,1.41,0,0,1,1.06.41,1.42,1.42,0,0,1,.41,1.05v4.22h2.49a1.45,1.45,0,0,1,1,.35,1.24,1.24,0,0,1,.38.94,1.17,1.17,0,0,1-.38.88,1.45,1.45,0,0,1-1,.35H69.26v7.24a3,3,0,0,0,.64,2,2,2,0,0,0,1.59.79h1A1.19,1.19,0,0,1,73.38,261.35Z"/><path class="cls-1" d="M89.45,262.49a1.22,1.22,0,0,1-1.38,1.38h-10a1.22,1.22,0,0,1-1.38-1.38,1.53,1.53,0,0,1,.26-.93l8.29-11H77.78a1.38,1.38,0,0,1,0-2.76h10a1.22,1.22,0,0,1,1.38,1.38,1.59,1.59,0,0,1-.26.94l-8.26,11h7.44A1.21,1.21,0,0,1,89.45,262.49Z"/><path class="cls-1" d="M107.58,248.22a1.5,1.5,0,0,1,.41,1.09v13.07a1.46,1.46,0,0,1-.41,1.06,1.56,1.56,0,0,1-2.15,0,1.4,1.4,0,0,1-.43-1.06v-.33a6.38,6.38,0,0,1-2.23,1.45A7.16,7.16,0,0,1,100,264a7.5,7.5,0,0,1-3.63-.88,6.13,6.13,0,0,1-2.52-2.57,8.36,8.36,0,0,1-.91-4.05v-7.21a1.45,1.45,0,0,1,.42-1.07,1.48,1.48,0,0,1,1.07-.43,1.46,1.46,0,0,1,1.07.43,1.42,1.42,0,0,1,.43,1.07v7.21a4.31,4.31,0,0,0,4.66,4.8,5,5,0,0,0,2.24-.5,4,4,0,0,0,1.58-1.34,3.38,3.38,0,0,0,.57-1.91v-8.26a1.44,1.44,0,0,1,.43-1.09,1.61,1.61,0,0,1,2.15,0Z"/><path class="cls-1" d="M139.46,262.38a1.44,1.44,0,0,1-.44,1.05,1.51,1.51,0,0,1-1.09.44,1.49,1.49,0,0,1-.83-.25,1.33,1.33,0,0,1-.57-.69l-1.64-4.1H124.37l-1.67,4.1a1.6,1.6,0,0,1-.59.69,1.44,1.44,0,0,1-.82.25,1.4,1.4,0,0,1-1.07-.45,1.54,1.54,0,0,1-.42-1.07,2.11,2.11,0,0,1,.14-.68L128.18,242a1.48,1.48,0,0,1,1.43-1,1.43,1.43,0,0,1,1.44,1l8.26,19.72A1.81,1.81,0,0,1,139.46,262.38Zm-5.6-6.07-4.19-10.43-4.28,10.43Z"/><path class="cls-1" d="M154.13,248.58a6.1,6.1,0,0,1,2.52,2.56,8.4,8.4,0,0,1,.91,4.06v7.2a1.45,1.45,0,0,1-.42,1.07,1.44,1.44,0,0,1-1.07.43,1.47,1.47,0,0,1-1.5-1.5v-7.2a4.33,4.33,0,0,0-4.66-4.81,5,5,0,0,0-2.24.5,4,4,0,0,0-1.58,1.35,3.34,3.34,0,0,0-.57,1.9v8.26a1.49,1.49,0,0,1-.41,1.07,1.51,1.51,0,0,1-2.58-1.07V249.34a1.44,1.44,0,0,1,.43-1.09,1.61,1.61,0,0,1,2.15,0,1.5,1.5,0,0,1,.41,1.09v.32a6.52,6.52,0,0,1,2.23-1.45,7.82,7.82,0,0,1,6.38.37Z"/><path class="cls-1" d="M177.46,241.4a1.46,1.46,0,0,1,.41,1.08v13.36A8.2,8.2,0,0,1,176.8,260a7.93,7.93,0,0,1-7,4,8.14,8.14,0,0,1-4.12-1.07,7.72,7.72,0,0,1-2.91-2.93,8.19,8.19,0,0,1-1.06-4.15,8.78,8.78,0,0,1,1-4.14,7.47,7.47,0,0,1,2.7-2.92,7.5,7.5,0,0,1,7-.35,7.3,7.3,0,0,1,2.49,2v-7.91a1.43,1.43,0,0,1,.42-1.08,1.45,1.45,0,0,1,1.07-.41A1.46,1.46,0,0,1,177.46,241.4Zm-5,19.23a5.07,5.07,0,0,0,1.86-2,6.21,6.21,0,0,0,0-5.61,5.08,5.08,0,0,0-1.86-2,5.24,5.24,0,0,0-5.3,0,5.21,5.21,0,0,0-1.88,2,6,6,0,0,0,0,5.61,5.19,5.19,0,0,0,1.88,2,5.24,5.24,0,0,0,5.3,0Z"/><path class="cls-1" d="M197.46,248.22a1.47,1.47,0,0,1,.42,1.09v13.07a1.43,1.43,0,0,1-.42,1.06,1.4,1.4,0,0,1-1.08.43,1.45,1.45,0,0,1-1.49-1.49v-.33a6.47,6.47,0,0,1-2.23,1.45,7.23,7.23,0,0,1-2.75.52,7.57,7.57,0,0,1-3.64-.88,6.24,6.24,0,0,1-2.52-2.57,8.47,8.47,0,0,1-.91-4.05v-7.21a1.5,1.5,0,1,1,3,0v7.21a4.75,4.75,0,0,0,1.28,3.59,4.68,4.68,0,0,0,3.38,1.21,5,5,0,0,0,2.24-.5,3.94,3.94,0,0,0,1.58-1.34,3.31,3.31,0,0,0,.58-1.91v-8.26a1.47,1.47,0,0,1,.42-1.09,1.49,1.49,0,0,1,1.07-.41A1.46,1.46,0,0,1,197.46,248.22Z"/><path class="cls-1" d="M217.18,256.53a1.32,1.32,0,0,1-1,.37H205.08a5.22,5.22,0,0,0,1.86,3.31,5.76,5.76,0,0,0,3.77,1.26,5.88,5.88,0,0,0,1.83-.32,5.42,5.42,0,0,0,1.56-.8,1.57,1.57,0,0,1,1-.32,1.28,1.28,0,0,1,.88.29,1.31,1.31,0,0,1,.53,1,1.07,1.07,0,0,1-.47.88,8.05,8.05,0,0,1-2.48,1.29,8.92,8.92,0,0,1-7.13-.54,7.57,7.57,0,0,1-3-2.89,8.14,8.14,0,0,1-1.07-4.19,8.58,8.58,0,0,1,1-4.2,7.26,7.26,0,0,1,2.81-2.9,8,8,0,0,1,4.09-1,7.38,7.38,0,0,1,3.89,1,6.55,6.55,0,0,1,2.52,2.79,9.12,9.12,0,0,1,.88,4.1A1.23,1.23,0,0,1,217.18,256.53Zm-10.39-5.11a5.26,5.26,0,0,0-1.68,3.13h9.76a5.2,5.2,0,0,0-1.47-3.13,4.29,4.29,0,0,0-3.13-1.17A5.09,5.09,0,0,0,206.79,251.42Z"/><path class="cls-1" d="M233.41,262.49a1.22,1.22,0,0,1-1.37,1.38H222a1.22,1.22,0,0,1-1.37-1.38,1.53,1.53,0,0,1,.26-.93l8.29-11h-7.47a1.38,1.38,0,0,1,0-2.76h10a1.22,1.22,0,0,1,1.38,1.38,1.59,1.59,0,0,1-.26.94l-8.27,11H232A1.21,1.21,0,0,1,233.41,262.49Z"/><path class="cls-1" d="M248.6,248.8a7.84,7.84,0,0,1,2.9,2.93,8.09,8.09,0,0,1,1.07,4.14v6.53a1.45,1.45,0,0,1-.42,1.07,1.44,1.44,0,0,1-1.07.43,1.42,1.42,0,0,1-1.07-.43,1.46,1.46,0,0,1-.43-1.07v-1.08a7,7,0,0,1-2.49,2,7.17,7.17,0,0,1-3.16.71,7.07,7.07,0,0,1-3.82-1.06,7.37,7.37,0,0,1-2.7-2.91,8.79,8.79,0,0,1-1-4.15,8.27,8.27,0,0,1,1-4.14,7.75,7.75,0,0,1,2.92-2.93,8,8,0,0,1,4.12-1.07A7.87,7.87,0,0,1,248.6,248.8Zm-1.43,11.83a5.08,5.08,0,0,0,1.86-2,5.77,5.77,0,0,0,.67-2.8,5.86,5.86,0,0,0-.67-2.81,5.17,5.17,0,0,0-7.17-2,5.17,5.17,0,0,0-1.87,2,5.76,5.76,0,0,0-.69,2.81,5.67,5.67,0,0,0,.69,2.8,5.18,5.18,0,0,0,1.87,2,5.26,5.26,0,0,0,5.31,0Z"/><path class="cls-1" d="M59.83,298V281.59h4.59a7.13,7.13,0,0,1,3.61.92,6.35,6.35,0,0,1,2.5,2.63,8.24,8.24,0,0,1,.89,3.9v1.51a8.24,8.24,0,0,1-.89,3.9,6.26,6.26,0,0,1-2.5,2.62,7.33,7.33,0,0,1-3.71.93Zm1.39-15.23v14.05h3.11a5.36,5.36,0,0,0,4.15-1.71,6.64,6.64,0,0,0,1.57-4.66V289a6.46,6.46,0,0,0-1.54-4.53,5.23,5.23,0,0,0-4.07-1.71Z"/><path class="cls-1" d="M74.54,282.29a.94.94,0,0,1,.25-.65.91.91,0,0,1,.68-.26.93.93,0,0,1,.68.26.9.9,0,0,1,.25.65.85.85,0,0,1-.25.63.89.89,0,0,1-.68.26.88.88,0,0,1-.68-.26A.89.89,0,0,1,74.54,282.29ZM76.13,298H74.78V285.81h1.35Z"/><path class="cls-1" d="M87.09,294.9a1.9,1.9,0,0,0-.8-1.61,6.19,6.19,0,0,0-2.43-1,11,11,0,0,1-2.52-.78A3.43,3.43,0,0,1,80,290.46a2.72,2.72,0,0,1-.43-1.56,2.89,2.89,0,0,1,1.21-2.38,4.89,4.89,0,0,1,3.08-.94,5,5,0,0,1,3.27,1,3.22,3.22,0,0,1,1.24,2.63H87a2.18,2.18,0,0,0-.9-1.78,4,4,0,0,0-4.39-.12,1.83,1.83,0,0,0-.81,1.54,1.67,1.67,0,0,0,.67,1.41,7,7,0,0,0,2.45.92,11.94,11.94,0,0,1,2.66.89A3.62,3.62,0,0,1,88,293.22a3.12,3.12,0,0,1-.82,4.08,5.35,5.35,0,0,1-3.25.92,5.43,5.43,0,0,1-3.45-1,3.2,3.2,0,0,1-1.33-2.61h1.36a2.33,2.33,0,0,0,1,1.84,4.11,4.11,0,0,0,2.43.66,3.8,3.8,0,0,0,2.28-.62A1.86,1.86,0,0,0,87.09,294.9Z"/><path class="cls-1" d="M96.2,298.22a5.18,5.18,0,0,1-2.81-.77,5.24,5.24,0,0,1-2-2.13,6.61,6.61,0,0,1-.7-3.07v-.48a7.23,7.23,0,0,1,.68-3.17,5.41,5.41,0,0,1,1.9-2.21,4.67,4.67,0,0,1,2.64-.81,4.41,4.41,0,0,1,3.52,1.52,6.13,6.13,0,0,1,1.3,4.14V292h-8.7v.26a5.11,5.11,0,0,0,1.19,3.45,3.78,3.78,0,0,0,3,1.38,4.43,4.43,0,0,0,1.91-.39,4.3,4.3,0,0,0,1.51-1.26l.84.64A4.92,4.92,0,0,1,96.2,298.22ZM96,286.73a3.33,3.33,0,0,0-2.56,1.12,5.1,5.1,0,0,0-1.27,3h7.31v-.14a4.51,4.51,0,0,0-1-2.87A3.13,3.13,0,0,0,96,286.73Z"/><path class="cls-1" d="M104.68,285.81l0,2.08a4.88,4.88,0,0,1,1.72-1.72,4.48,4.48,0,0,1,2.26-.59,3.65,3.65,0,0,1,2.92,1.11,5,5,0,0,1,1,3.31v8h-1.34v-8a3.74,3.74,0,0,0-.7-2.44,2.72,2.72,0,0,0-2.18-.8,3.37,3.37,0,0,0-2.21.79,4.5,4.5,0,0,0-1.42,2.11V298H103.4V285.81Zm7.28-4.62a2.4,2.4,0,0,1-.64,1.73,2.07,2.07,0,0,1-1.56.66,2.75,2.75,0,0,1-1.67-.62,2.49,2.49,0,0,0-1.46-.62,1.21,1.21,0,0,0-.89.35,1.33,1.33,0,0,0-.35,1l-1,0a2.41,2.41,0,0,1,.61-1.7,2.25,2.25,0,0,1,2.51-.48,5.27,5.27,0,0,1,.72.43,6.92,6.92,0,0,0,.68.42,1.6,1.6,0,0,0,.8.19,1.2,1.2,0,0,0,.89-.37,1.36,1.36,0,0,0,.36-1Z"/><path class="cls-1" d="M115.32,291.72a7.05,7.05,0,0,1,.69-3.16,5.08,5.08,0,0,1,4.74-3,5,5,0,0,1,4,1.71,6.6,6.6,0,0,1,1.51,4.52v.28a7.35,7.35,0,0,1-.68,3.19,5.12,5.12,0,0,1-4.75,2.94,5,5,0,0,1-3.94-1.71,6.54,6.54,0,0,1-1.52-4.52Zm1.36.37a5.49,5.49,0,0,0,1.13,3.59,3.83,3.83,0,0,0,5.92,0,5.68,5.68,0,0,0,1.14-3.7v-.26a6.33,6.33,0,0,0-.52-2.56,4.14,4.14,0,0,0-1.46-1.79,3.65,3.65,0,0,0-2.14-.64,3.61,3.61,0,0,0-2.94,1.41,5.8,5.8,0,0,0-1.13,3.71Z"/><path class="cls-1" d="M134.06,291.79a7.33,7.33,0,0,1,1.27-4.54,4.09,4.09,0,0,1,3.44-1.67,4.23,4.23,0,0,1,3.78,2l.07-1.75h1.26v11.94a5.17,5.17,0,0,1-1.32,3.73,4.74,4.74,0,0,1-3.57,1.37,5.42,5.42,0,0,1-2.43-.57,4.66,4.66,0,0,1-1.81-1.51l.75-.81a4.26,4.26,0,0,0,3.4,1.75,3.48,3.48,0,0,0,2.64-1,4,4,0,0,0,1-2.77v-1.53a4.35,4.35,0,0,1-3.77,1.8,4.06,4.06,0,0,1-3.41-1.69,7.41,7.41,0,0,1-1.28-4.56Zm1.36.24a6.27,6.27,0,0,0,.94,3.67,3,3,0,0,0,2.63,1.35,3.6,3.6,0,0,0,3.53-2.23v-5.67a3.88,3.88,0,0,0-1.36-1.78,3.71,3.71,0,0,0-2.15-.62,3.06,3.06,0,0,0-2.64,1.34A6.8,6.8,0,0,0,135.42,292Z"/><path class="cls-1" d="M153,287a4.47,4.47,0,0,0-.91-.08,3.3,3.3,0,0,0-2.14.7,3.81,3.81,0,0,0-1.24,2.05V298H147.4V285.81h1.31l0,1.93a3.58,3.58,0,0,1,3.43-2.16,2.16,2.16,0,0,1,.89.15Z"/><path class="cls-1" d="M162.4,298a6.76,6.76,0,0,1-.26-1.71,4.56,4.56,0,0,1-1.81,1.43,5.56,5.56,0,0,1-2.32.5,4.13,4.13,0,0,1-2.85-1,3.2,3.2,0,0,1-1.08-2.48,3.25,3.25,0,0,1,1.48-2.81,7.12,7.12,0,0,1,4.13-1h2.44v-1.39a2.68,2.68,0,0,0-.8-2,3.33,3.33,0,0,0-2.35-.75,3.66,3.66,0,0,0-2.33.72,2.14,2.14,0,0,0-.93,1.74l-1.35,0a3.12,3.12,0,0,1,1.35-2.51,5.2,5.2,0,0,1,3.32-1.07,4.75,4.75,0,0,1,3.22,1,3.64,3.64,0,0,1,1.21,2.85v5.76a7.32,7.32,0,0,0,.37,2.65V298Zm-4.23-1a4.47,4.47,0,0,0,2.41-.66,3.78,3.78,0,0,0,1.55-1.74V292h-2.41a6.06,6.06,0,0,0-3.15.73,2.23,2.23,0,0,0-1.14,2,2.17,2.17,0,0,0,.76,1.7A2.87,2.87,0,0,0,158.17,297Zm2.65-16.34h1.64l-2.6,3.16h-1.19Z"/><path class="cls-1" d="M168,298V286.91h-2v-1.1h2v-1.48a4,4,0,0,1,1-2.87,3.45,3.45,0,0,1,2.65-1,5,5,0,0,1,1.43.19l-.1,1.11a5.34,5.34,0,0,0-1.23-.13,2.24,2.24,0,0,0-1.74.69,2.89,2.89,0,0,0-.61,2v1.52h2.9v1.1h-2.9V298Z"/><path class="cls-1" d="M174.62,282.29a.94.94,0,0,1,.25-.65.91.91,0,0,1,.68-.26.93.93,0,0,1,.68.26.9.9,0,0,1,.25.65.85.85,0,0,1-.25.63.89.89,0,0,1-.68.26.88.88,0,0,1-.68-.26A.89.89,0,0,1,174.62,282.29ZM176.21,298h-1.35V285.81h1.35Z"/><path class="cls-1" d="M184.38,297.08a3.56,3.56,0,0,0,2.36-.79,2.81,2.81,0,0,0,1-2.06h1.3a3.85,3.85,0,0,1-.7,2,4.35,4.35,0,0,1-1.71,1.43,5.08,5.08,0,0,1-2.28.52,4.67,4.67,0,0,1-3.8-1.67,6.7,6.7,0,0,1-1.41-4.48v-.41a7.58,7.58,0,0,1,.64-3.18,4.82,4.82,0,0,1,1.8-2.14,5,5,0,0,1,2.76-.76,4.65,4.65,0,0,1,3.3,1.2,4.33,4.33,0,0,1,1.4,3.14h-1.3a3.26,3.26,0,0,0-3.4-3.19,3.35,3.35,0,0,0-2.83,1.32,5.91,5.91,0,0,0-1,3.69v.4a5.81,5.81,0,0,0,1,3.64A3.38,3.38,0,0,0,184.38,297.08Z"/><path class="cls-1" d="M191,291.72a7.05,7.05,0,0,1,.69-3.16,5.08,5.08,0,0,1,4.74-3,5,5,0,0,1,3.95,1.71,6.6,6.6,0,0,1,1.51,4.52v.28a7.35,7.35,0,0,1-.68,3.19,5.12,5.12,0,0,1-4.75,2.94,5,5,0,0,1-3.94-1.71A6.54,6.54,0,0,1,191,292Zm1.36.37a5.49,5.49,0,0,0,1.13,3.59,3.83,3.83,0,0,0,5.92,0,5.68,5.68,0,0,0,1.14-3.7v-.26a6.33,6.33,0,0,0-.52-2.56,4.14,4.14,0,0,0-1.46-1.79,3.65,3.65,0,0,0-2.14-.64,3.61,3.61,0,0,0-2.94,1.41,5.8,5.8,0,0,0-1.13,3.71Z"/></g></svg>